<?xml version="1.0" standalone="no"?>
<!DOCTYPE svg PUBLIC "-//W3C//DTD SVG 20010904//EN"
 "http://www.w3.org/TR/2001/REC-SVG-20010904/DTD/svg10.dtd">
<svg version="1.0" xmlns="http://www.w3.org/2000/svg"
 width="400.000000pt" height="400.000000pt" viewBox="0 0 400.000000 400.000000"
 preserveAspectRatio="xMidYMid meet">
<metadata>
Created by potrace 1.14, written by Peter Selinger 2001-2017
</metadata>
<g transform="translate(0.000000,400.000000) scale(0.100000,-0.100000)"
fill="#000000" stroke="none">
<path d="M0 2000 l0 -2000 2000 0 2000 0 0 2000 0 2000 -2000 0 -2000 0 0
-2000z m2262 1541 c217 -38 433 -126 623 -254 123 -84 323 -285 404 -407 414
-622 348 -1420 -162 -1956 -224 -236 -503 -388 -847 -461 -132 -27 -450 -25
-587 5 -633 138 -1093 599 -1230 1232 -28 131 -26 489 4 622 139 616 605 1082
1210 1207 132 27 135 28 315 30 115 1 186 -4 270 -18z"/>
<path d="M1855 3209 c-98 -11 -246 -51 -340 -93 -697 -305 -951 -1153 -535
-1790 55 -85 212 -252 285 -305 l45 -32 0 593 0 593 155 155 155 155 2 -825 3
-825 60 -16 c33 -9 77 -19 98 -23 l37 -7 0 948 0 948 83 83 c45 45 87 82 92
82 6 0 47 -37 93 -83 l82 -82 0 -948 c0 -695 3 -947 11 -947 6 0 51 9 100 21
l89 21 0 826 0 827 160 -160 160 -160 0 -582 c0 -321 3 -583 6 -583 15 0 139
107 199 172 303 328 402 805 253 1226 -66 189 -148 315 -302 467 -165 162
-323 253 -536 309 -160 43 -292 53 -455 35z"/>
</g>
</svg>
